<svg width="137" height="136" viewBox="0 0 137 136" fill="none" xmlns="http://www.w3.org/2000/svg">
<path d="M41.9155 111.4C41.9257 88.6604 42.0536 87.0554 44.3385 81.1732C45.6702 77.745 48.3684 73.483 50.3596 71.6625C56.5427 66.0096 61.6577 64.9266 82.1719 64.9266C103.113 64.9266 106.139 64.0641 109.746 57.0667C112.44 51.8427 112.467 42.603 109.803 37.3674C106.023 29.9354 103.538 29.213 79.3786 28.5217C56.017 27.8534 54.8084 27.547 48.694 20.7434C45.3374 17.0085 41.9589 8.61011 41.9276 3.9239L41.9053 0.585449H73.2115C108.945 0.585449 112.586 1.28928 122.293 10.074C138.218 24.4862 141.794 53.5155 130.144 73.812C126.477 80.201 122.792 83.7989 114.826 88.7669C109.282 92.2248 109.154 92.243 87.7576 92.6307L66.2595 93.0203L65.9826 113.875L65.7058 134.731L53.8056 135.073L41.9053 135.415L41.9155 111.4Z" fill="white"/>
<path d="M27.7951 82.8782C27.7576 81.7348 26.7409 77.6416 25.5363 73.7822C22.4903 64.0241 14.2702 54.3314 5.44515 50.0919C-0.737508 47.1218 -0.983961 46.8579 1.39399 45.7533C9.46826 42.0028 11.978 40.2327 16.6529 34.9912C22.1614 28.8151 23.9453 25.4352 26.8032 15.76C27.8121 12.3444 28.8001 10.4864 29.0625 11.5111C33.8015 30.0167 41.0483 39.4319 55.1026 45.3432L58.6166 46.8212L52.9374 49.5981C42.789 54.5601 36.3137 61.7224 32.4941 72.2103C31.1567 75.8826 29.5678 80.2529 28.963 81.9221C28.1985 84.0327 27.8427 84.3239 27.7951 82.8782Z" fill="#D5E43C"/>
</svg>
